Coordinates
version=1
nRows=19
nColumns=33
inDegrees=yes

Units are S.I. units (second, meters, Newtons, ...)
Angles are in degrees.

endheader
time	ground_thorax_rot_x	ground_thorax_rot_y	ground_thorax_rot_z	ground_thorax_tx	ground_thorax_ty	ground_thorax_tz	clav_prot_r	clav_elev_r	scapula_abduction_r	scapula_elevation_r	scapula_upward_rot_r	scapula_winging_r	shoulder_elv_r	plane_of_elev_r	axial_rot_r	elbow_flexion_r	pro_sup_r	wrist_flex_r	wrist_dev_r	clav_prot_l	clav_elev_l	scapula_abduction_l	scapula_elevation_l	scapula_upward_rot_l	scapula_winging_l	shoulder_elv_l	plane_of_elev_l	axial_rot_l	elbow_flexion_l	pro_sup_l	wrist_flex_l	wrist_dev_l
      7.18000000	    -90.00000000	     90.00000000	    -90.00000000	   -222.50225991	    829.41834783	      4.57392962	     26.91008670	     41.37046583	     45.00000000	     45.00000000	     16.53126099	   3223.99994087	   -259.93290045	     25.28832989	   -161.43416773	    744.48997681	    136.50110044	     13.01392007	      3.20966729	    -45.00000000	      2.38759857	     35.51127405	    -12.63815475	    -45.00000000	  -1333.36317869	   -243.47365412	     11.68967248	   -162.35847721	   2169.71569511	     31.59636132	      5.07494246	    -23.30746579
      7.19000000	    -90.00000000	     90.00000000	    -90.00000000	   -220.02314999	    829.35497631	      4.55203122	     27.03737410	     41.39523080	     45.00000000	     45.00000000	     16.29691920	   3223.80270104	   -259.98003181	     25.21747066	   -161.35668811	    744.70578214	    139.22750303	     12.83030625	      3.21906261	    -45.00000000	      2.31926554	     35.59148756	    -12.60079189	    -45.00000000	  -1333.40087240	   -243.52007807	     11.56918088	   -162.19421682	   2169.63373890	     30.79444066	      5.24534731	    -23.27497877
      7.20000000	    -90.00000000	     90.00000000	    -90.00000000	   -217.39366288	    829.22618405	      4.54503184	     27.16081643	     41.34707251	     45.00000000	     45.00000000	     16.12295176	   3223.61405869	   -260.02125672	     25.11388252	   -161.36758358	    744.74534596	    141.78603897	     12.64911520	      3.26084035	    -45.00000000	      2.13332064	     35.62037032	    -12.46295647	    -45.00000000	  -1333.26002529	   -243.58019509	     11.53776690	   -162.07218720	   2169.72540872	     29.99935739	      5.44010017	    -23.27848842
      7.21000000	    -90.00000000	     90.00000000	    -90.00000000	   -214.62534663	    829.03111270	      4.55543156	     27.29077135	     41.33613914	     45.00000000	     45.00000000	     15.94310140	   3223.41188586	   -260.07091768	     25.02144579	   -161.35601013	    744.85395368	    144.36814197	     12.46695243	      3.28404656	    -45.00000000	      2.00650918	     35.67921729	    -12.35611073	    -45.00000000	  -1333.16874690	   -243.66418268	     11.46447723	   -161.84320671	   2169.76075967	     29.14555736	      5.64171805	    -23.26131389
      7.22000000	    -90.00000000	     90.00000000	    -90.00000000	   -211.72448173	    828.76880358	      4.58449431	     27.42352551	     41.34153222	     45.00000000	     45.00000000	     15.74868200	   3223.16800232	   -260.10191493	     24.95177669	   -161.32359547	    744.99640783	    147.02291367	     12.28138789	      3.29443734	    -45.00000000	      1.88999072	     35.76098524	    -12.24973378	    -45.00000000	  -1333.07314652	   -243.75704476	     11.38819647	   -161.56160259	   2169.75072249	     28.21322304	      5.86878842	    -23.22926929
      7.23000000	    -90.00000000	     90.00000000	    -90.00000000	   -208.68912800	    828.43794549	      4.63180515	     27.55320855	     41.30260368	     45.00000000	     45.00000000	     15.57352434	   3222.93860072	   -260.16813068	     24.83522288	   -161.34680831	    744.95474354	    149.48695450	     12.11442819	      3.33602768	    -45.00000000	      1.69443267	     35.82384933	    -12.09859542	    -45.00000000	  -1332.89361813	   -243.80403141	     11.36691328	   -161.28657340	   2169.85922088	     27.29599674	      6.13969042	    -23.22739840
      7.24000000	    -90.00000000	     90.00000000	    -90.00000000	   -205.53251104	    828.03828096	      4.69474677	     27.68904843	     41.30311496	     45.00000000	     45.00000000	     15.39910720	   3222.69905813	   -260.22233675	     24.73676080	   -161.34709166	    744.98829576	    151.90625606	     11.95050329	      3.35090205	    -45.00000000	      1.54828005	     35.90591873	    -11.97956874	    -45.00000000	  -1332.77769996	   -243.91552099	     11.22554590	   -160.95883938	   2169.84362912	     26.33745809	      6.42111925	    -23.18370217
      7.25000000	    -90.00000000	     90.00000000	    -90.00000000	   -202.25109606	    827.56753932	      4.76940486	     27.82549208	     41.30430826	     45.00000000	     45.00000000	     15.24617107	   3222.44057780	   -260.24385640	     24.64478843	   -161.35256592	    745.00953913	    154.27849754	     11.79268096	      3.35529502	    -45.00000000	      1.40337101	     36.02575121	    -11.83768335	    -45.00000000	  -1332.65005826	   -244.03717003	     11.11057389	   -160.60088169	   2169.89889597	     25.32517483	      6.72271155	    -23.14086327
      7.26000000	    -90.00000000	     90.00000000	    -90.00000000	   -198.84549681	    827.02263643	      4.85128747	     27.96677644	     41.30582076	     45.00000000	     45.00000000	     15.07603561	   3222.17434288	   -260.28644655	     24.54561473	   -161.35594206	    744.99628495	    156.57181410	     11.64180159	      3.36160649	    -45.00000000	      1.25590397	     36.15186386	    -11.71564695	    -45.00000000	  -1332.51418591	   -244.15504168	     10.98709731	   -160.17040011	   2169.92545453	     24.29008282	      7.06544114	    -23.08604417
      7.27000000	    -90.00000000	     90.00000000	    -90.00000000	   -195.31785715	    826.39913105	      4.93625402	     28.11296803	     41.31046063	     45.00000000	     45.00000000	     14.86066443	   3221.91257356	   -260.37531592	     24.44216038	   -161.36093383	    744.97891676	    158.78854343	     11.49407495	      3.36554856	    -45.00000000	      1.10222044	     36.26088380	    -11.61196065	    -45.00000000	  -1332.38096535	   -244.27128113	     10.88137512	   -159.69351880	   2170.08033768	     23.22576256	      7.42284202	    -23.03827255
      7.28000000	    -90.00000000	     90.00000000	    -90.00000000	   -191.65844844	    825.68824147	      5.02176563	     28.26571419	     41.31402607	     45.00000000	     45.00000000	     14.73555564	   3221.61917554	   -260.38815385	     24.34618517	   -161.36334688	    744.92153427	    160.90326933	     11.35841159	      3.36471327	    -45.00000000	      0.95195232	     36.44729860	    -11.46127791	    -45.00000000	  -1332.18453684	   -244.42108148	     10.74390918	   -159.21835228	   2170.02840397	     22.20030194	      7.83364437	    -22.94113152
      7.29000000	    -90.00000000	     90.00000000	    -90.00000000	   -187.87239137	    824.88193715	      5.10542990	     28.42478485	     41.33149135	     45.00000000	     45.00000000	     14.57733249	   3221.33493928	   -260.42155732	     24.24397801	   -161.37557024	    744.87621217	    162.95249906	     11.22568491	      3.35141530	    -45.00000000	      0.85137967	     36.64308232	    -11.38639352	    -45.00000000	  -1332.04965774	   -244.58288254	     10.58140062	   -158.69071551	   2170.01123061	     21.16913473	      8.23075535	    -22.81813160
      7.30000000	    -90.00000000	     90.00000000	    -90.00000000	   -183.95742096	    823.96863622	      5.18794177	     28.59678890	     41.38287085	     45.00000000	     45.00000000	     14.39574449	   3221.04258443	   -260.42586286	     24.17683026	   -161.38079791	    744.87711942	    164.98158851	     11.09156522	      3.30951119	    -45.00000000	      0.78350246	     36.89084338	    -11.37514234	    -45.00000000	  -1331.99194817	   -244.75345507	     10.35472930	   -158.11568266	   2169.95238027	     20.12430611	      8.62958944	    -22.66143514
      7.31000000	    -90.00000000	     90.00000000	    -90.00000000	   -179.91357469	    822.93807023	      5.26536568	     28.77489785	     41.41318837	     45.00000000	     45.00000000	     14.22549464	   3220.73872769	   -260.44384057	     24.09009988	   -161.39743365	    744.82704508	    166.93578563	     10.96487074	      3.27978051	    -45.00000000	      0.72810252	     37.13699911	    -11.34287769	    -45.00000000	  -1331.85136185	   -244.94364959	     10.18937105	   -157.53051028	   2169.92851344	     19.13684035	      9.04217626	    -22.49140373
      7.32000000	    -90.00000000	     90.00000000	    -90.00000000	   -175.74493592	    821.78197471	      5.33428088	     28.95844046	     41.43702237	     45.00000000	     45.00000000	     14.07292087	   3220.43539419	   -260.47177050	     23.96910570	   -161.43290858	    744.72435112	    168.77188948	     10.85382575	      3.25317641	    -45.00000000	      0.69181753	     37.40658760	    -11.32187256	    -45.00000000	  -1331.71117842	   -245.13083014	     10.00780125	   -156.93778958	   2169.88422827	     18.26846281	      9.45809525	    -22.30202320
      7.33000000	    -90.00000000	     90.00000000	    -90.00000000	   -171.45882268	    820.49509605	      5.38628094	     29.14707213	     41.45424415	     45.00000000	     45.00000000	     13.92446201	   3220.13599886	   -260.50486647	     23.84393995	   -161.48426951	    744.60791958	    170.47649944	     10.75479157	      3.22628681	    -45.00000000	      0.68139756	     37.68275832	    -11.31502555	    -45.00000000	  -1331.50399755	   -245.33766370	      9.87578798	   -156.33157336	   2169.87189561	     17.54459666	      9.85844396	    -22.10626246
      7.34000000	    -90.00000000	     90.00000000	    -90.00000000	   -167.05814967	    819.07163253	      5.41681841	     29.34458661	     41.47816714	     45.00000000	     45.00000000	     13.78338764	   3219.85021347	   -260.53925145	     23.70356161	   -161.55512455	    744.47881283	    172.06536961	     10.66932394	      3.19325618	    -45.00000000	      0.71389582	     37.99816062	    -11.35696657	    -45.00000000	  -1331.36844796	   -245.56110115	      9.67340719	   -155.68317431	   2169.82804039	     16.98068801	     10.23452488	    -21.89846239
      7.35000000	    -90.00000000	     90.00000000	    -90.00000000	   -162.55014534	    817.50941909	      5.41852247	     29.56249395	     41.52707698	     45.00000000	     45.00000000	     13.62012239	   3219.55068790	   -260.54416824	     23.61042410	   -161.61080454	    744.44414250	    173.62370903	     10.57288854	      3.14319904	    -45.00000000	      0.82818023	     38.36928611	    -11.48251595	    -45.00000000	  -1331.26684607	   -245.83074339	      9.48291533	   -154.95003187	   2169.73917313	     16.55581330	     10.55545275	    -21.68025740
      7.36000000	    -90.00000000	     90.00000000	    -90.00000000	   -157.93875830	    815.80643375	      5.39165806	     29.78155201	     41.56476848	     45.00000000	     45.00000000	     13.46332395	   3219.23571355	   -260.54810388	     23.48728151	   -161.71054353	    744.34411159	    175.09786737	     10.49828312	      3.08528743	    -45.00000000	      0.96092559	     38.74510259	    -11.61029754	    -45.00000000	  -1331.15758068	   -246.08639550	      9.28825343	   -154.26021187	   2169.63834014	     16.31984103	     10.86165332	    -21.46435819
